<svg xmlns="http://www.w3.org/2000/svg" viewBox="0 0 617.41 154.41"><defs><style>.cls-1{fill:#fa005a;}.cls-2{fill:#ffc500;}.cls-3{fill:#f9edd8;}</style></defs><title>Asset 2</title><g id="Layer_2" data-name="Layer 2"><g id="Layer_1-2" data-name="Layer 1"><path class="cls-1" d="M478.6,71.94,407.42.78a2.63,2.63,0,0,0-4.49,1.85V62.47L381.37,40.93a2.63,2.63,0,0,0-4.49,1.86v61.79A14.67,14.67,0,0,0,381.19,115L409.24,143a14.77,14.77,0,0,0,10.4,4.3h20.53a14.72,14.72,0,0,0,10.39-4.3L478.61,115a14.66,14.66,0,0,0,4.3-10.39V82.34A14.67,14.67,0,0,0,478.6,71.94Z"/><path class="cls-2" d="M456.89,98a4.42,4.42,0,0,1-1.29,3.11L433,123.79a4.4,4.4,0,0,1-6.25,0l-22.55-22.71A4.42,4.42,0,0,1,402.9,98V89.34a4.41,4.41,0,0,1,1.3-3.12l8.12-8.12a4.42,4.42,0,0,1,6.24,0l11.35,11.36L441.24,78.1a4.42,4.42,0,0,1,6.24,0l8.11,8.12a4.41,4.41,0,0,1,1.3,3.12Z"/><path class="cls-3" d="M586.17,56.29h0a25.75,25.75,0,0,0-16,5.58l-3.63,3a3.14,3.14,0,0,1-3.85,0l-3.64-3a25.75,25.75,0,0,0-16-5.58h-.67c-8.75,0-16.43,4.78-20.7,13a.84.84,0,0,1-1.59-.37V59.71a2.77,2.77,0,0,0-2.77-2.77H498.09a2.79,2.79,0,0,0-2.78,2.79v75.9a2.81,2.81,0,0,0,2.81,2.81h19.16a2.81,2.81,0,0,0,2.81-2.81V90.35a9.47,9.47,0,0,1,9.48-9.48h4.85a9.48,9.48,0,0,1,9.49,9.48l.06,45.29a2.8,2.8,0,0,0,2.81,2.8h19.16a2.81,2.81,0,0,0,2.81-2.81V90.35a9.48,9.48,0,0,1,9.48-9.48h4.86a9.47,9.47,0,0,1,9.48,9.48l.07,45.29a2.8,2.8,0,0,0,2.8,2.8h19.17a2.8,2.8,0,0,0,2.8-2.81V88A31.31,31.31,0,0,0,586.17,56.29Z"/><path class="cls-3" d="M360,27.48,342.2,9.68a2.73,2.73,0,0,0-4.67,1.93V60.09a1.6,1.6,0,0,1-2.5,1.32,25.81,25.81,0,0,0-15-4.45H308.84a31.6,31.6,0,0,0-31.61,31.6v9.53h0v8.85a31.61,31.61,0,0,0,31.61,31.61h6.22c8.75,0,16.43-4.78,20.7-13a.84.84,0,0,1,1.59.37v9.84a2.77,2.77,0,0,0,2.77,2.77h19.23a2.79,2.79,0,0,0,2.78-2.78V32.61A7.27,7.27,0,0,0,360,27.48Zm-58.09,78V102h0V90a9.49,9.49,0,0,1,9.48-9.48h15.93A9.48,9.48,0,0,1,336.8,90v9.08h0v6.4a9.48,9.48,0,0,1-9.48,9.49H311.39A9.49,9.49,0,0,1,301.91,105.49Z"/><path class="cls-3" d="M162.42,57H143.2a2.77,2.77,0,0,0-2.77,2.77v9.83a.84.84,0,0,1-1.59.37c-4.27-8.2-12-13-20.7-13h-6.23a31.6,31.6,0,0,0-31.6,31.6v18.38a31.6,31.6,0,0,0,31.6,31.61h6.23c8.74,0,16.43-4.78,20.7-13a.84.84,0,0,1,1.59.37v9.84a2.77,2.77,0,0,0,2.77,2.77h19.22a2.78,2.78,0,0,0,2.78-2.78v-76A2.77,2.77,0,0,0,162.42,57Zm-22.54,48.53a9.49,9.49,0,0,1-9.49,9.49H114.47a9.49,9.49,0,0,1-9.49-9.49V90a9.49,9.49,0,0,1,9.49-9.48h15.92A9.49,9.49,0,0,1,139.88,90Z"/><path class="cls-3" d="M231.78,57H230c-8.74,0-16.43,4.77-20.7,13a.84.84,0,0,1-1.59-.37V59.73A2.77,2.77,0,0,0,204.94,57H185.72a2.77,2.77,0,0,0-2.78,2.78v75.91a2.8,2.8,0,0,0,2.8,2.8h19.17a2.8,2.8,0,0,0,2.8-2.8L207.78,91a9.48,9.48,0,0,1,9.48-9.48h11.8A9.49,9.49,0,0,1,238.54,91l.06,44.64a2.81,2.81,0,0,0,2.81,2.8h19.16a2.8,2.8,0,0,0,2.81-2.8V88.56A31.6,31.6,0,0,0,231.78,57Z"/><path class="cls-3" d="M16.23,40.34A16.24,16.24,0,0,0,0,56.58v73.15a9.78,9.78,0,0,0,2.86,6.91l16.91,16.9a2.93,2.93,0,0,0,5-2.07V114a2.73,2.73,0,0,1,2.73-2.73H56a3.64,3.64,0,0,0,3.47-2.54l5.37-17a3.07,3.07,0,0,0-2.92-4H27.5A2.72,2.72,0,0,1,24.77,85V66.45a2.72,2.72,0,0,1,2.73-2.72H71.24A3.63,3.63,0,0,0,74.7,61.2l5.41-16.86a3.07,3.07,0,0,0-2.92-4Z"/></g></g></svg>